<?xml version="1.0" encoding="utf-8"?>
<!-- Generator: Adobe Illustrator 17.0.0, SVG Export Plug-In . SVG Version: 6.00 Build 0)  -->
<!DOCTYPE svg PUBLIC "-//W3C//DTD SVG 1.1//EN" "http://www.w3.org/Graphics/SVG/1.1/DTD/svg11.dtd">
<svg version="1.1" id="Layer_1" xmlns="http://www.w3.org/2000/svg" xmlns:xlink="http://www.w3.org/1999/xlink" x="0px" y="0px"
	 width="636px" height="114px" viewBox="0 0 636 114" enable-background="new 0 0 636 114" xml:space="preserve">
<path fill="#00985F" d="M63.774,0.43v56.338v2.192v0.037l-0.007,0.007c-0.023,2.539-2.089,4.581-4.634,4.581h-2.178H52.15l0,0
	c-0.348,0.003-0.628,0.284-0.628,0.633v49.074c1.729,0.158,3.477,0.244,5.246,0.244c31.353,0,56.769-25.417,56.769-56.77
	C113.537,27.788,91.821,3.882,63.774,0.43z M62.618,87.734c-3.918,0-7.095-3.176-7.095-7.096c0-3.918,3.177-7.096,7.095-7.096
	c3.919,0,7.096,3.178,7.096,7.096C69.714,84.559,66.537,87.734,62.618,87.734z M79.26,87.734c-3.918,0-7.095-3.176-7.095-7.096
	c0-3.918,3.177-7.096,7.095-7.096c3.919,0,7.096,3.178,7.096,7.096C86.355,84.559,83.179,87.734,79.26,87.734z M95.892,87.734
	c-3.918,0-7.095-3.176-7.095-7.096c0-3.918,3.177-7.096,7.095-7.096s7.095,3.178,7.095,7.096
	C102.986,84.559,99.81,87.734,95.892,87.734z"/>
<path fill="#00985F" d="M56.325,56.768c0.336,0,0.607-0.263,0.628-0.593l0.003-56.163h0.781C57.415,0.006,57.092,0,56.769,0
	C25.416,0,0,25.416,0,56.767c0,27.213,19.148,49.948,44.704,55.48v-50.94l0.002-0.002c0.052-2.455,2.01-4.439,4.453-4.533
	l0.005-0.004h2.358C51.522,56.768,56.325,56.768,56.325,56.768z M45.888,46.811c-3.919,0-7.096-3.176-7.096-7.094
	s3.177-7.096,7.096-7.096c3.918,0,7.095,3.178,7.095,7.096S49.806,46.811,45.888,46.811z"/>
<polygon fill="#00985F" points="622.005,31.214 622.005,52.632 593.257,52.632 593.257,31.214 579.067,31.214 579.067,59.396 
	579.067,87.775 593.257,87.775 593.257,64.916 622.005,64.916 622.005,87.775 636.196,87.775 636.196,59.396 636.196,31.214 "/>
<path fill="#00985F" d="M387.606,37.521c-2.369-5.139-7.093-7.654-11.644-7.654l0,0c-0.002,0-0.004,0-0.006,0l0,0
	c-4.551,0-9.273,2.516-11.644,7.654l-23.18,50.254h15.078l5.055-11.939h14.689h0.006h14.689l5.055,11.939h15.078L387.606,37.521z
	 M375.964,64.512h-0.006h-9.885l8.729-20.539c0.271-0.638,0.777-0.808,1.154-0.808h0.002c0.002,0,0.004,0,0.004,0
	c0.377,0,0.883,0.17,1.154,0.808l8.729,20.539H375.964z"/>
<path fill="#00985F" d="M219.752,20.969c-6.639,0-10.876,3.538-14.017,10.66l-12.061,27.77l-6.428,14.799l-6.428-14.799
	l-12.061-27.77c-3.141-7.122-7.378-10.66-14.018-10.66c-6.208,0-12.63,4.446-12.63,14.108v24.319v28.379h14.16V59.396V36.517
	l10.082,22.879l8.518,19.33c2.5,5.896,6.521,9.601,12.372,9.604l0,0c0.001,0,0.003,0,0.004,0s0.002,0,0.003,0l0,0
	c5.852-0.004,9.872-3.709,12.373-9.604l8.518-19.33l10.082-22.879v22.879v28.379h14.16V59.396V35.077
	C232.383,25.415,225.96,20.969,219.752,20.969z"/>
<path fill="#00985F" d="M257.21,75.826c-0.685,0-1.218-0.561-1.218-1.219V64.512h35.344v-6.408l0,0v-5.116h-35.344v-8.604
	c0-0.658,0.533-1.218,1.218-1.218h34.954V31.214h-41.925c-4.911,0-8.438,4.103-8.438,8.434v19.75l0,0v19.944
	c0,4.33,3.527,8.435,8.438,8.435h41.925v-11.95L257.21,75.826L257.21,75.826z"/>
<path fill="#00985F" d="M315.796,87.775V52.987v-8.604c0-0.658,0.534-1.218,1.218-1.218h34.954V31.214h-41.924
	c-4.912,0-8.438,4.103-8.438,8.434v19.75l0,0v28.379h14.189v-0.002H315.796z"/>
<path fill="#00985F" d="M569.687,59.396c-0.008-19.807-8.518-29.048-29.983-29.048h-4.959c-21.474,0-29.98,9.242-29.99,29.048
	c0,0.011,0,0.021,0,0.03c0,19.497,8.695,28.9,30.111,28.9h4.711c21.41,0,30.111-9.403,30.111-28.9
	C569.687,59.418,569.687,59.407,569.687,59.396z M539.489,76.622h-4.535c-11.828,0-16.393-5.325-16.393-17.17
	c0-0.019,0.002-0.037,0.002-0.056c0-11.488,4.014-17.136,16.391-17.136h4.535c12.022,0,16.387,5.646,16.387,17.136
	c0,0.019,0,0.037,0,0.056C555.876,71.297,551.224,76.622,539.489,76.622z"/>
<path fill="#00985F" d="M466.046,22.306h-14.033H437.98c-20.947,0-29.324,10.591-29.324,29.074c0,2.888,0.172,5.563,0.588,8.019
	c2.217,13.088,9.908,21.129,29.524,21.129h6.173v7.25h7.071h7.072v-7.25h6.172c19.617,0,27.31-8.041,29.525-21.129
	c0.416-2.456,0.588-5.13,0.588-8.019C495.37,32.896,486.993,22.306,466.046,22.306z M444.94,59.396v9.189h-6.496
	c-9.593,0-13.045-3.577-15.162-9.189c-0.814-2.155-0.812-4.889-0.812-7.995c0-12.066,5.578-17.173,13.75-17.173h8.72V59.396z
	 M480.743,59.396c-2.117,5.612-5.568,9.189-15.162,9.189h-6.496v-9.189V34.229h8.719c8.172,0,13.75,5.106,13.75,17.173
	C481.554,54.509,481.556,57.241,480.743,59.396z"/>
</svg>
