<?xml version="1.0" encoding="utf-8"?>
<!-- Generator: Adobe Illustrator 16.2.0, SVG Export Plug-In . SVG Version: 6.00 Build 0)  -->
<!DOCTYPE svg PUBLIC "-//W3C//DTD SVG 1.1//EN" "http://www.w3.org/Graphics/SVG/1.1/DTD/svg11.dtd">
<svg version="1.1" id="Layer_1" xmlns="http://www.w3.org/2000/svg" xmlns:xlink="http://www.w3.org/1999/xlink" x="0px" y="0px"
	 width="600px" height="200px" viewBox="0 0 600 200" enable-background="new 0 0 600 200" xml:space="preserve">
<g fill="#fff" >
	<g>
		<path d="M225.23,66.703c-0.142,0.286-0.402,0.357-0.783,0.214c-1.089-0.377-2.156-0.52-3.198-0.427
			c-3.175,0.334-8.008,3.296-14.5,8.885c-5.116,4.312-9.832,8.933-14.143,13.859c-4.169,4.74-7.7,9.501-10.59,14.286
			c-0.709,1.232-1.457,2.465-2.238,3.697c-0.783,1.231-1.412,1.776-1.883,1.634c-0.522-0.143-0.782-0.568-0.782-1.279
			c0-0.806,0.331-1.896,0.993-3.271c0.998-2.084,2.89-5.068,5.688-8.954c0.899-1.848,1.351-3.577,1.351-5.189
			c0-1.515-0.403-2.912-1.208-4.193c-0.759,0.713-1.874,1.778-3.34,3.2c-16.016,15.966-29.922,23.95-41.72,23.95
			c-7.25,0-10.875-2.936-10.875-8.813c0-3.837,1.61-7.77,4.833-11.795c2.701-3.413,5.972-6.28,9.808-8.601
			c5.308-3.27,11.704-5.307,19.192-6.114c-1.469-1.04-2.086-2.558-1.849-4.548c0.473-4.358,3.529-7.84,9.167-10.448
			c5.022-2.32,10.829-3.481,17.414-3.481c6.113,0,12.011,0.521,17.696,1.562c2.938,0.523,7.345,1.564,13.22,3.13
			c1.139,0.284,3.437,0.992,6.895,2.131C224.945,66.326,225.23,66.515,225.23,66.703z M182.372,83.974
			c-3.837-3.694-9.619-5.4-17.341-5.117c-2.891,0.095-6.351,0.829-10.378,2.205c-4.027,1.373-7.51,2.983-10.447,4.833
			c-9.999,6.301-14.997,12.485-14.997,18.55c0,5.212,3.104,7.819,9.31,7.819c4.976,0,10.614-2.016,16.916-6.046
			c5.497-3.506,12.581-9.284,21.25-17.34C178.629,87.08,180.524,85.443,182.372,83.974z M220.325,65.496
			c-0.568-0.142-1.468-0.331-2.7-0.568c-5.782-1.09-9.975-1.799-12.58-2.133c-5.355-0.663-11.539-0.995-18.55-0.995
			c-6.352,0-12.013,1.044-16.987,3.128c-5.355,2.276-8.222,5.165-8.6,8.672c-0.19,1.847,0.499,3.196,2.061,4.05
			c0.853-0.095,1.517-0.142,1.992-0.142c8.195-0.144,14.237,1.801,18.122,5.827c8.48-6.917,16.748-11.869,24.804-14.854
			C212.814,66.68,216.96,65.687,220.325,65.496z M218.621,66.421c-2.465,0.189-5.615,1.064-9.453,2.628
			c-7.915,3.174-16.088,8.601-24.52,16.276c0.994,1.565,1.492,3.198,1.492,4.904c0,0.853-0.119,1.706-0.354,2.559
			c1.752-2.273,3.717-4.523,5.898-6.75C202.581,74.903,211.559,68.365,218.621,66.421z"/>
		<path d="M277.68,64.715c-0.521,2.795-1.825,4.738-3.908,5.828c-0.427,0.238-0.687,0.238-0.781,0
			c-0.048-0.143,0.094-0.356,0.425-0.64c1.467-1.327,2.345-2.843,2.63-4.549c0.142-0.709,0.213-1.397,0.213-2.062
			c0-3.222-1.282-5.803-3.837-7.747c-2.843-2.178-6.894-3.269-12.154-3.269c-8.861,0-19.642,5.022-32.338,15.066
			c-9.146,7.25-19.048,16.587-29.71,28.004c1.943-1.8,4.313-3.647,7.107-5.544c3.507-2.368,5.996-3.554,7.464-3.554
			c1.137,0,1.706,0.712,1.706,2.133c0,1.328-0.51,2.95-1.529,4.867c-1.021,1.92-2.287,3.616-3.802,5.083
			c-6.493,6.35-11.941,9.476-16.347,9.382c-0.711,0-1.374-0.215-1.99-0.64c-0.379-0.236-0.594-0.592-0.641-1.068
			c-0.046-0.473,0.072-0.732,0.356-0.779c0.285-0.047,0.475,0.141,0.568,0.568c0.284,0.521,0.734,0.807,1.352,0.854
			c1.326,0.096,2.878-0.535,4.656-1.885c1.776-1.35,4.725-4.133,8.848-8.351c4.454-4.548,6.681-7.32,6.681-8.316
			c0-0.329-0.238-0.497-0.712-0.497c-1.42,0-4.157,1.469-8.209,4.408c-4.051,2.937-7.404,5.874-10.056,8.813
			c-9.95,10.897-18.076,18.952-24.378,24.165c-15.967,13.266-32.315,19.709-49.042,19.33c-5.969-0.139-10.778-1.705-14.428-4.691
			c-3.411-2.842-5.115-6.373-5.115-10.59c0-2.131,0.474-4.262,1.422-6.396c0.708-1.609,1.396-2.414,2.059-2.414
			c0.096,0,0.167,0.021,0.213,0.07c0.048,0.143-0.189,0.756-0.709,1.848c-1.089,2.227-1.635,4.43-1.635,6.611
			c0,3.979,1.622,7.342,4.869,10.092c3.245,2.744,7.57,4.191,12.97,4.334c15.163,0.377,30.751-6.111,46.767-19.473
			c4.93-4.123,14.641-14.074,29.141-29.852c4.878-5.306,8.622-9.24,11.228-11.797c6.824-6.776,13.385-12.438,19.688-16.987
			c12.936-9.335,24.258-14.001,33.974-14.001c5.732,0,10.138,1.208,13.219,3.625c2.654,2.132,3.98,4.81,3.98,8.031
			C277.895,63.387,277.824,64.05,277.68,64.715z"/>
		<path d="M239.799,86.463c-6.112,5.639-10.898,10.566-14.356,14.783c-2.086,2.559-3.129,4.146-3.129,4.76
			c0,0.24,0.12,0.404,0.356,0.5c0.9,0.426,3.08-0.732,6.538-3.482c0.095-0.096,2.393-2.063,6.896-5.899
			c0.424-0.284,0.733-0.331,0.923-0.142c0.236,0.236,0.166,0.497-0.213,0.781c-1.658,1.613-3.933,3.553-6.822,5.828
			c-3.554,2.795-6.018,4.169-7.392,4.122c-1.707-0.098-2.559-0.876-2.559-2.347c0-1.088,0.451-2.393,1.35-3.907
			c-0.617,0.616-1.445,1.325-2.487,2.132c-3.555,2.748-6.113,4.122-7.677,4.122c-1.609,0-2.417-0.685-2.417-2.062
			c0-2.369,1.777-5.425,5.331-9.168c3.554-3.741,7.153-6.655,10.803-8.742c1.23-0.711,2.701-0.995,4.406-0.852
			c-6.777,5.543-11.797,10.328-15.067,14.356c-2.038,2.512-3.057,4.076-3.057,4.691c0,0.281,0.119,0.473,0.356,0.568
			c0.996,0.475,3.27-0.711,6.823-3.555c1.658-1.325,3.908-3.458,6.753-6.394c4.5-4.693,8.101-7.821,10.802-9.383
			C236.956,86.556,238.235,86.32,239.799,86.463z"/>
		<path d="M240.296,96.84c-0.141,1.944,0.285,3.032,1.28,3.268c0.994,0.476,3.268-0.71,6.823-3.551
			c4.548-4.693,8.173-7.821,10.873-9.383c0.995-0.618,2.275-0.854,3.838-0.711c-6.113,5.639-10.897,10.566-14.356,14.783
			c-2.085,2.559-3.127,4.146-3.127,4.76c0,0.24,0.118,0.404,0.355,0.5c0.9,0.426,3.079-0.732,6.541-3.482
			c0.093-0.096,2.39-2.063,6.892-5.899c0.428-0.284,0.735-0.331,0.924-0.142c0.237,0.236,0.166,0.497-0.213,0.781
			c-1.66,1.613-3.932,3.553-6.823,5.828c-3.553,2.795-6.018,4.169-7.392,4.122c-1.706-0.098-2.559-0.876-2.559-2.347
			c0.19-2.227,1.445-4.477,3.769-6.751c-2.276,1.754-4.241,2.655-5.901,2.701c-1.611,0-2.44-0.686-2.486-2.061
			c-1.945,1.802-4.55,4.762-7.818,8.886c-0.378,0-0.64-0.381-0.783-1.14c-0.094-0.709-0.046-1.254,0.144-1.635
			c1.754-3.364,4.808-7.319,9.168-11.868c2.511-2.605,4.69-4.524,6.539-5.757c1.139-0.759,2.794-1.138,4.976-1.138
			C247.688,88.879,244.133,92.291,240.296,96.84z"/>
		<path d="M285.427,86.89c-6.302,5.639-11.112,10.446-14.428,14.426c-1.99,2.371-2.985,3.91-2.985,4.621
			c0,0.281,0.117,0.473,0.355,0.568c0.852,0.426,3.151-0.83,6.894-3.768c1.565-1.234,3.813-3.151,6.752-5.756
			c0.379-0.38,0.663-0.403,0.853-0.073c0.142,0.286,0.025,0.593-0.356,0.925c-2.37,2.085-4.572,3.957-6.609,5.612
			c-3.508,2.846-6.041,4.267-7.604,4.267c-1.707,0-2.56-0.782-2.56-2.347c0-1.041,0.475-2.273,1.422-3.695
			c-4.786,4.029-8.197,6.042-10.233,6.042c-1.612,0-2.417-0.782-2.417-2.347c0-2.842,1.848-6.158,5.543-9.95
			c2.417-2.463,5.271-4.619,8.564-6.466c3.293-1.849,5.958-2.773,7.997-2.773c1.516,0,2.273,0.52,2.273,1.563
			c0,0.994-0.735,2.203-2.203,3.625c2.985-2.464,4.975-3.861,5.969-4.193C283.46,86.89,284.385,86.794,285.427,86.89z
			 M277.04,87.246c-2.273,0-6.846,3.292-13.717,9.878c-4.359,4.169-6.538,7.104-6.538,8.813c0,0.33,0.143,0.568,0.427,0.711
			c0.662,0.283,2.356-0.559,5.081-2.523c2.722-1.965,5.555-4.442,8.494-7.428c4.736-4.879,7.107-7.77,7.107-8.672
			C277.894,87.506,277.608,87.246,277.04,87.246z"/>
		<path d="M313.251,86.89c3.225-17.39,11.182-26.086,23.881-26.086c8.483,0.285,18.739,1.707,30.777,4.266
			c2.13-1.706,4.38-2.891,6.751-3.555c0.286-0.093,0.555-0.164,0.816-0.214c0.261-0.045,0.463-0.068,0.604-0.068
			c0.189,0.046,0.262,0.141,0.214,0.282c-0.095,0.193-0.498,0.404-1.209,0.642c-1.944,0.615-3.743,1.706-5.399,3.268
			c5.303,1.375,10.042,2.394,14.214,3.056c1.798,0.285,3.102,0.381,3.908,0.285c0.804-0.093,1.256-0.034,1.35,0.177
			c0.096,0.214-0.309,0.368-1.207,0.464c-1.092,0.283-2.537,0.308-4.337,0.07c-4.218-0.521-9.404-1.374-15.564-2.559
			c-2.798,1.848-5.828,4.645-9.096,8.387c-0.57,0.617-3.059,3.602-7.465,8.954c0.663-0.141,1.635,0.214,2.914,1.067
			c4.17,2.56,6.257,5.756,6.257,9.596c0,1.944-0.547,3.814-1.637,5.614c-1.896,3.127-5.165,5.616-9.807,7.462
			c-4.22,1.707-8.767,2.582-13.647,2.631c-5.733,0.094-11.775-0.568-18.124-1.99c-0.901-0.238-2.204-0.521-3.91-0.854
			c1.139,3.934,3.27,6.918,6.396,8.955c2.986,1.941,6.635,2.82,10.945,2.631c3.127-0.143,5.829-1.021,8.103-2.631
			c0.71-0.521,1.113-0.734,1.21-0.639c0.331,0.283,0.129,0.746-0.605,1.385c-0.734,0.641-1.979,1.268-3.732,1.885
			c-1.894,0.615-3.625,0.947-5.188,0.994c-4.689,0.143-8.646-0.887-11.867-3.092c-3.225-2.203-5.354-5.293-6.396-9.275
			c-2.323,0.521-4.433,0.807-6.328,0.854c-0.852,0-1.552-0.096-2.096-0.283c-0.544-0.193-0.793-0.475-0.746-0.854
			c0.096-1.185,1.517-1.896,4.264-2.132c1.231-0.096,2.7,0,4.406,0.283c-0.282-1.752-0.378-3.553-0.282-5.402
			C311.806,95.679,312.351,91.153,313.251,86.89z M314.532,88.025c-0.996,4.123-1.564,8.27-1.706,12.438
			c-0.095,2.085,0.021,3.958,0.355,5.615c1.279,0.332,2.724,0.332,4.334,0c4.453-0.898,8.861-3.008,13.222-6.324
			c3.554-2.749,8.29-7.32,14.213-13.716c9.856-10.425,16.869-16.917,21.04-19.477c-10.519-1.847-20.044-2.938-28.573-3.269
			C327.751,63.198,320.123,71.443,314.532,88.025z M355.471,99.541c1.372-2.087,2.06-4.266,2.06-6.539
			c-0.284-3.081-1.659-5.38-4.122-6.895c-0.616-0.427-1.47-0.805-2.559-1.138c-0.38,0.521-0.737,0.972-1.066,1.351
			c-11.37,12.793-22.721,19.758-34.044,20.896c0.474,0.095,1.137,0.235,1.99,0.427c6.017,1.279,12.083,1.895,18.195,1.846
			c3.931-0.047,7.698-0.984,11.3-2.808C350.826,104.859,353.575,102.479,355.471,99.541z"/>
		<path d="M384.608,88.239c0,2.463-2.131,5.875-6.396,10.235c-6.16,6.207-10.802,9.31-13.932,9.31c-2.037,0-3.054-1.089-3.054-3.269
			c0-2.984,1.846-6.349,5.542-10.092c2.369-2.417,5.048-4.407,8.033-5.972c2.841-1.516,5.233-2.273,7.177-2.273
			C383.732,86.179,384.608,86.867,384.608,88.239z M382.62,87.174c-2.418,0-6.822,3.316-13.221,9.95
			c-4.075,4.218-6.112,7.083-6.112,8.599c0,0.76,0.38,1.139,1.137,1.139c1.991,0,6.327-3.389,13.007-10.165
			c4.075-4.168,6.113-7.082,6.113-8.743C383.543,87.435,383.233,87.174,382.62,87.174z"/>
		<path d="M408.205,86.961c-0.237,0.236-3.814,4.335-10.732,12.294c-7.059,8.056-13.197,14.097-18.407,18.125
			c-8.86,6.824-17.507,10.232-25.94,10.232c-3.46,0-6.54-0.758-9.241-2.271c-2.938-1.611-4.594-3.672-4.976-6.184
			c-0.188-1.135-0.07-1.754,0.356-1.848c0.237-0.096,0.426,0.285,0.568,1.139c0.426,2.51,2.037,4.5,4.833,5.969
			c2.415,1.324,5.118,1.992,8.103,1.992c7.155,0,14.974-3.369,23.454-10.096c4.738-3.791,10.707-9.618,17.911-17.483l-0.143-0.142
			c-6.444,6.017-10.827,9.025-13.149,9.025c-1.656,0-2.486-0.806-2.486-2.419c0-2.889,1.802-6.181,5.401-9.877
			c2.414-2.463,5.33-4.607,8.742-6.432c3.411-1.822,6.135-2.737,8.172-2.737c0.616,0,1.128,0.107,1.529,0.319
			c0.404,0.214,0.604,0.629,0.604,1.245c0,0.994-0.665,2.226-1.99,3.695l0.215,0.141c2.321-2.32,3.909-3.718,4.76-4.192
			C406.5,87.08,407.304,86.913,408.205,86.961z M400.742,87.246c-2.228,0-6.798,3.292-13.717,9.878
			c-4.405,4.218-6.609,7.13-6.609,8.741c0,0.381,0.166,0.641,0.497,0.783c0.713,0.283,2.428-0.559,5.154-2.523
			c2.723-1.965,5.529-4.442,8.422-7.428c4.786-4.927,7.177-7.84,7.177-8.743C401.666,87.481,401.358,87.246,400.742,87.246z"/>
		<path d="M431.018,86.463c-6.111,5.639-10.899,10.566-14.357,14.783c-2.083,2.559-3.127,4.146-3.127,4.76
			c0,0.24,0.117,0.404,0.356,0.5c0.898,0.426,3.08-0.732,6.537-3.482c0.098-0.096,2.393-2.063,6.895-5.899
			c0.429-0.284,0.736-0.331,0.924-0.142c0.237,0.236,0.166,0.497-0.213,0.781c-1.658,1.613-3.934,3.553-6.822,5.828
			c-3.554,2.795-6.019,4.169-7.392,4.122c-1.706-0.098-2.557-0.876-2.557-2.347c0-1.088,0.45-2.393,1.349-3.907
			c-0.615,0.616-1.447,1.325-2.489,2.132c-3.554,2.748-6.109,4.122-7.675,4.122c-1.612,0-2.416-0.685-2.416-2.062
			c0-2.369,1.776-5.425,5.331-9.168c3.553-3.741,7.154-6.655,10.803-8.742c1.231-0.711,2.701-0.995,4.407-0.852
			c-6.778,5.543-11.799,10.328-15.068,14.356c-2.037,2.512-3.057,4.076-3.057,4.691c0,0.281,0.12,0.473,0.355,0.568
			c0.995,0.475,3.268-0.711,6.823-3.555c1.658-1.325,3.908-3.458,6.753-6.394c4.501-4.693,8.101-7.821,10.804-9.383
			C428.176,86.556,429.454,86.32,431.018,86.463z"/>
		<path d="M431.515,96.84c-0.142,1.944,0.282,3.032,1.281,3.268c0.993,0.476,3.268-0.71,6.821-3.551
			c4.55-4.693,8.172-7.821,10.875-9.383c0.993-0.618,2.274-0.854,3.838-0.711c-6.114,5.639-10.9,10.566-14.357,14.783
			c-2.085,2.559-3.125,4.146-3.125,4.76c0,0.24,0.114,0.404,0.352,0.5c0.9,0.426,3.08-0.732,6.54-3.482
			c0.094-0.096,2.391-2.063,6.894-5.899c0.429-0.284,0.734-0.331,0.924-0.142c0.238,0.236,0.166,0.497-0.213,0.781
			c-1.659,1.613-3.934,3.553-6.824,5.828c-3.554,2.795-6.016,4.169-7.392,4.122c-1.707-0.098-2.557-0.876-2.557-2.347
			c0.189-2.227,1.445-4.477,3.767-6.751c-2.274,1.754-4.24,2.655-5.899,2.701c-1.613,0-2.442-0.686-2.487-2.061
			c-1.942,1.802-4.551,4.762-7.818,8.886c-0.379,0-0.641-0.381-0.782-1.14c-0.093-0.709-0.048-1.254,0.142-1.635
			c1.754-3.364,4.81-7.319,9.168-11.868c2.512-2.605,4.692-4.524,6.539-5.757c1.139-0.759,2.797-1.138,4.978-1.138
			C438.906,88.879,435.353,92.291,431.515,96.84z"/>
		<path d="M476.645,86.89c-6.3,5.639-11.109,10.446-14.425,14.426c-1.989,2.371-2.987,3.91-2.987,4.621
			c0,0.281,0.118,0.473,0.357,0.568c0.854,0.426,3.149-0.83,6.893-3.768c1.564-1.234,3.814-3.151,6.752-5.756
			c0.38-0.38,0.663-0.403,0.855-0.073c0.141,0.286,0.021,0.593-0.356,0.925c-2.372,2.085-4.574,3.957-6.608,5.612
			c-3.509,2.846-6.044,4.267-7.607,4.267c-1.704,0-2.56-0.782-2.56-2.347c0-1.041,0.474-2.273,1.424-3.695
			c-4.788,4.029-8.199,6.042-10.237,6.042c-1.61,0-2.416-0.782-2.416-2.347c0-2.842,1.85-6.158,5.546-9.95
			c2.416-2.463,5.269-4.619,8.562-6.466c3.295-1.849,5.962-2.773,7.997-2.773c1.515,0,2.274,0.52,2.274,1.563
			c0,0.994-0.734,2.203-2.205,3.625c2.989-2.464,4.979-3.861,5.973-4.193C474.68,86.89,475.604,86.794,476.645,86.89z
			 M468.26,87.246c-2.275,0-6.848,3.292-13.717,9.878c-4.36,4.169-6.538,7.104-6.538,8.813c0,0.33,0.14,0.568,0.425,0.711
			c0.665,0.283,2.357-0.559,5.084-2.523c2.723-1.965,5.553-4.442,8.491-7.428c4.738-4.879,7.107-7.77,7.107-8.672
			C469.113,87.506,468.829,87.246,468.26,87.246z"/>
	</g>
	<g>
		<path d="M231.271,151.448l4.001-5.781h1.452l-4.687,6.66l5.18,7.26h-1.562l-4.385-6.467l-4.384,6.467h-1.563l5.18-7.26
			l-4.714-6.66h1.479L231.271,151.448z"/>
		<path d="M238.669,152.628c0-2.467,0.576-4.33,1.727-5.592c1.151-1.26,2.713-1.898,4.686-1.918c1.955,0,3.512,0.635,4.672,1.904
			c1.161,1.271,1.741,3.139,1.741,5.605c0,2.484-0.58,4.357-1.741,5.617c-1.16,1.262-2.717,1.891-4.672,1.891
			c-1.973,0-3.535-0.629-4.686-1.891C239.245,156.985,238.669,155.112,238.669,152.628z M239.931,152.628
			c-0.019,2.047,0.411,3.648,1.288,4.807c0.877,1.162,2.165,1.742,3.864,1.742c1.68,0,2.959-0.58,3.837-1.742
			c0.876-1.158,1.315-2.76,1.315-4.807c0-2.029-0.438-3.627-1.315-4.797c-0.877-1.168-2.157-1.754-3.837-1.754
			c-1.699,0-2.983,0.586-3.85,1.754C240.364,149.001,239.931,150.599,239.931,152.628z"/>
		<path d="M255.112,145.667h1.205v2.219h0.055c0.42-0.912,1.06-1.604,1.918-2.068c0.858-0.467,1.809-0.699,2.85-0.699
			c1.845,0,3.302,0.631,4.371,1.891c1.068,1.262,1.603,3.07,1.603,5.426c0,2.43-0.539,4.32-1.617,5.674
			c-1.077,1.352-2.548,2.027-4.412,2.027c-1.096,0-2.051-0.234-2.863-0.699c-0.813-0.465-1.449-1.191-1.905-2.178v7.398h-1.205
			V145.667z M256.263,152.71c-0.019,1.973,0.416,3.543,1.302,4.713c0.886,1.17,2.078,1.754,3.576,1.754
			c1.571,0,2.75-0.602,3.535-1.809c0.786-1.205,1.178-2.859,1.178-4.961c0-1.9-0.412-3.426-1.233-4.576
			c-0.822-1.15-1.964-1.734-3.425-1.754c-1.553,0-2.764,0.598-3.631,1.795C256.697,149.069,256.263,150.683,256.263,152.71z"/>
		<path d="M281.036,155.558h1.206c-0.237,1.354-0.845,2.453-1.822,3.305c-0.978,0.85-2.307,1.273-3.987,1.273
			c-2.155,0-3.764-0.68-4.824-2.041c-1.059-1.361-1.589-3.248-1.589-5.66c0-2.393,0.58-4.209,1.741-5.453
			c1.16-1.242,2.717-1.863,4.672-1.863c2.01,0,3.512,0.645,4.508,1.934c0.995,1.287,1.483,3.191,1.466,5.713H271.28
			c0.018,2.1,0.498,3.695,1.439,4.781s2.197,1.631,3.768,1.631c1.133,0.02,2.12-0.289,2.96-0.918
			C280.287,157.628,280.817,156.729,281.036,155.558z M271.28,151.806h9.812c-0.019-1.826-0.456-3.234-1.312-4.221
			c-0.857-0.986-2.004-1.488-3.443-1.508c-1.495,0.02-2.701,0.525-3.621,1.521C271.794,148.595,271.316,149.995,271.28,151.806z"/>
		<path d="M285.311,152.628c0-2.467,0.576-4.33,1.726-5.592c1.152-1.26,2.714-1.898,4.687-1.918c1.955,0,3.512,0.635,4.672,1.904
			c1.16,1.271,1.739,3.139,1.739,5.605c0,2.484-0.579,4.357-1.739,5.617c-1.16,1.262-2.717,1.891-4.672,1.891
			c-1.973,0-3.535-0.629-4.687-1.891C285.887,156.985,285.311,155.112,285.311,152.628z M286.571,152.628
			c-0.018,2.047,0.412,3.648,1.288,4.807c0.877,1.162,2.166,1.742,3.865,1.742c1.68,0,2.959-0.58,3.836-1.742
			c0.877-1.158,1.315-2.76,1.315-4.807c0-2.029-0.438-3.627-1.315-4.797c-0.877-1.168-2.156-1.754-3.836-1.754
			c-1.699,0-2.984,0.586-3.851,1.754C287.005,149.001,286.571,150.599,286.571,152.628z"/>
		<path d="M302.958,146.624v12.963h-1.206v-13.92h8.716v0.957H302.958z"/>
		<path d="M312.797,145.667h1.207v2.219h0.055c0.419-0.912,1.059-1.604,1.917-2.068c0.86-0.467,1.809-0.699,2.85-0.699
			c1.845,0,3.303,0.631,4.371,1.891c1.069,1.262,1.603,3.07,1.603,5.426c0,2.43-0.538,4.32-1.615,5.674
			c-1.079,1.352-2.549,2.027-4.412,2.027c-1.096,0-2.053-0.234-2.864-0.699c-0.813-0.465-1.448-1.191-1.903-2.178v7.398h-1.207
			V145.667z M313.947,152.71c-0.017,1.973,0.416,3.543,1.303,4.713c0.888,1.17,2.078,1.754,3.576,1.754
			c1.571,0,2.75-0.602,3.535-1.809c0.786-1.205,1.179-2.859,1.179-4.961c0-1.9-0.412-3.426-1.232-4.576
			c-0.823-1.15-1.966-1.734-3.427-1.754c-1.553,0-2.763,0.598-3.631,1.795C314.383,149.069,313.947,150.683,313.947,152.71z"/>
		<path d="M329.375,149.53h-1.205c0.018-1.314,0.461-2.379,1.329-3.193c0.868-0.813,2.196-1.219,3.986-1.219
			c1.608,0.02,2.837,0.379,3.686,1.082c0.851,0.705,1.266,1.797,1.249,3.275l-0.139,7.619c-0.017,0.566,0.069,0.98,0.261,1.246
			c0.192,0.266,0.461,0.396,0.809,0.396c0.073,0,0.155-0.002,0.247-0.014c0.092-0.008,0.182-0.031,0.273-0.068v0.932
			c-0.182,0.037-0.347,0.07-0.494,0.096c-0.146,0.029-0.282,0.041-0.409,0.041c-0.695,0-1.197-0.223-1.508-0.67
			s-0.438-1.082-0.384-1.906c-0.439,0.879-1.083,1.555-1.933,2.029c-0.849,0.477-1.858,0.723-3.028,0.74
			c-1.443,0-2.57-0.334-3.385-1c-0.812-0.668-1.219-1.668-1.219-3.002c0-1.205,0.397-2.15,1.192-2.836
			c0.795-0.684,2.326-1.139,4.589-1.357c0.184,0,0.39-0.014,0.618-0.039c0.229-0.029,0.543-0.068,0.945-0.123
			c1.205-0.129,1.894-0.33,2.068-0.604c0.173-0.273,0.27-0.822,0.288-1.645c0-0.988-0.311-1.773-0.932-2.357
			s-1.552-0.877-2.796-0.877c-1.406,0-2.443,0.311-3.109,0.932C329.708,147.63,329.375,148.47,329.375,149.53z M337.077,153.612
			l0.026-1.725c-0.164,0.129-0.341,0.236-0.534,0.328c-0.19,0.092-1.328,0.256-3.41,0.494c-1.754,0.219-2.924,0.566-3.509,1.041
			s-0.877,1.195-0.877,2.164c-0.019,0.932,0.277,1.674,0.891,2.221c0.612,0.549,1.439,0.82,2.479,0.82
			c1.463,0,2.641-0.465,3.536-1.396C336.574,156.628,337.04,155.313,337.077,153.612z"/>
		<path d="M350.586,164.657v-4.713c-2.742-0.057-4.786-0.723-6.139-2.002c-1.352-1.277-2.018-3.068-1.999-5.369
			c0-2.357,0.688-4.176,2.067-5.453c1.38-1.279,3.402-1.875,6.07-1.783v-4.932h1.206v4.932c2.595-0.055,4.599,0.566,6.015,1.865
			c1.416,1.297,2.125,3.096,2.125,5.398c0,2.301-0.667,4.086-2.001,5.355c-1.333,1.271-3.38,1.932-6.139,1.988v4.713H350.586z
			 M350.586,158.985v-12.689c-2.375-0.035-4.115,0.504-5.22,1.617c-1.106,1.115-1.659,2.668-1.659,4.66
			c0,2.102,0.59,3.695,1.769,4.781C346.654,158.442,348.357,158.985,350.586,158.985z M351.792,146.296v12.689
			c2.228,0,3.933-0.539,5.111-1.617c1.178-1.078,1.767-2.668,1.767-4.768c0-2.064-0.598-3.633-1.795-4.701
			C355.678,146.833,353.985,146.296,351.792,146.296z"/>
	</g>
	
</g>
</svg>
