<?xml version="1.0" encoding="UTF-8" standalone="no"?>
<!-- Created with Inkscape (http://www.inkscape.org/) -->
<svg
   xmlns:dc="http://purl.org/dc/elements/1.1/"
   xmlns:cc="http://web.resource.org/cc/"
   xmlns:rdf="http://www.w3.org/1999/02/22-rdf-syntax-ns#"
   xmlns:svg="http://www.w3.org/2000/svg"
   xmlns="http://www.w3.org/2000/svg"
   xmlns:sodipodi="http://sodipodi.sourceforge.net/DTD/sodipodi-0.dtd"
   xmlns:inkscape="http://www.inkscape.org/namespaces/inkscape"
   id="svg2"
   sodipodi:version="0.32"
   inkscape:version="0.44.1"
   width="40"
   height="30"
   version="1.0"
   sodipodi:docbase="C:\Documents and Settings\Brittany Boyer\My Documents\Pictures\Work\Wikimedia\Clean up\Convert to SVG"
   sodipodi:docname="Cquote2.svg">
  <metadata
     id="metadata7">
    <rdf:RDF>
      <cc:Work
         rdf:about="">
        <dc:format>image/svg+xml</dc:format>
        <dc:type
           rdf:resource="http://purl.org/dc/dcmitype/StillImage" />
      </cc:Work>
    </rdf:RDF>
  </metadata>
  <defs
     id="defs5" />
  <sodipodi:namedview
     inkscape:window-height="573"
     inkscape:window-width="853"
     inkscape:pageshadow="2"
     inkscape:pageopacity="0.0"
     guidetolerance="10.0"
     gridtolerance="10.0"
     objecttolerance="10.0"
     borderopacity="1.0"
     bordercolor="#666666"
     pagecolor="#ffffff"
     id="base"
     inkscape:zoom="6.2833333"
     inkscape:cx="45.841389"
     inkscape:cy="15.697489"
     inkscape:window-x="176"
     inkscape:window-y="232"
     inkscape:current-layer="svg2" />
  <path
     style="opacity:1;fill:#000000;fill-opacity:1"
     d="M 15.566505,4.429075 C 20.661394,10.147629 17.151768,20.102255 12.910137,23.950412 C 9.2952104,27.229999 3.3051684,29.911456 2.7404714,28.974531 C 1.8427454,27.485055 5.3761294,26.427622 8.0326684,24.036996 C 11.348953,20.450759 12.462537,18.838631 7.8738354,16.815538 C 2.9552534,14.595747 2.8607904,12.424528 2.7027474,9.662366 C 2.3048694,2.708511 10.592777,-0.54465195 15.566505,4.429075 z "
     id="path1873"
     sodipodi:nodetypes="cssccsc" />
  <path
     style="opacity:1;fill:#000000;fill-opacity:1"
     d="M 34.73875,4.528274 C 39.833639,10.246828 36.324013,20.201454 32.082382,24.04961 C 28.467454,27.329198 22.477412,30.010654 21.912715,29.073729 C 21.014989,27.584253 24.548373,26.526821 27.204912,24.136195 C 30.521198,20.549958 31.634782,18.93783 27.046079,16.914737 C 22.127497,14.694946 22.033034,12.523727 21.874991,9.761565 C 21.477113,2.80771 29.765021,-0.44545295 34.73875,4.528274 z "
     id="path1875"
     sodipodi:nodetypes="cssccsc" />
</svg>