<?xml version="1.0" encoding="UTF-8" standalone="no"?>

<!-- Created with Inkscape (http://www.inkscape.org/) -->

<svg id="svg7094" xmlns:rdf="http://www.w3.org/1999/02/22-rdf-syntax-ns#" xmlns="http://www.w3.org/2000/svg" height="1052.4" width="744.09" version="1.1" xmlns:cc="http://creativecommons.org/ns#" xmlns:dc="http://purl.org/dc/elements/1.1/">

 <metadata id="metadata7099">

  <rdf:RDF>

   <cc:Work rdf:about="">

    <dc:format>image/svg+xml</dc:format>

    <dc:type rdf:resource="http://purl.org/dc/dcmitype/StillImage"/>

    <dc:title/>

   </cc:Work>

  </rdf:RDF>

 </metadata>

 <g id="layer1">

  <g id="g7359" fill="#fff" transform="translate(38.571429,-128.57143)">

   <path id="path7135" d="m569.82,249.84c-0.86254-0.007-1.5319,0.17327-1.7188,0.59375-0.18333,0.4125-3.2688,3.1699-6.8438,6.125-8.0226,6.6315-8.8502,8.3505-5.2188,11.062,1.4873,1.1108,3.1688,2.4173,3.7188,2.9062,0.6028,0.53589,1.133,0.40312,1.3125-0.34375,0.37751-1.571,5.6857-7.2569,11.562-7.5938,2.5815-0.14798,6.9788-0.63525,6.6562,2.0938-0.24267,2.0531,3.4382,3.9688,4.0938,3.9688,0.6555,0,3.5421-3.0011,5.9688-5.4688,4.6714-4.7502,5.1892-7.3521,2.1562-10.75-2.1054-2.3587-3.3063-2.2161-5.7188,0.71875-1.297,1.5779-2.6688,4.3567-5.25,4.75-3.8129,0.58099-15.551,2.6354-6.5-4.3438,2.58-1.9895-1.6311-3.6991-4.2188-3.7188z"/>

   <path id="path7129" d="m504.32,256.25c3.0082-0.14873,6.6875,1.7771,6.6875,2.8125,0,0.50441-1.6061,1.8769-3.5625,3.0312-4.3909,2.5907-14.611,2.3119-12.562-0.15625,1.8194-2.1272,5.0649-4.0342,7.5-5.2188,0.56736-0.29071,1.2433-0.43443,1.9375-0.46875zm-32.344-1.875c4.5219-0.0301,11.031,1.4025,11.031,2.75,0,1.1118-4.054,2.9081-9,4-2.475,0.54638-5.85,1.004-7.5,1-2.7065-0.007-2.8288-0.14526-1.25-1.3438,0.9625-0.73064,1.75-2.2711,1.75-3.4375,0-1.3667,0.79999-2.3267,2.25-2.6875,0.7258-0.18061,1.6752-0.27431,2.7188-0.28125zm0.25-4.875c-3.0618-0.062-6.2934,0.1649-7.9688,1.0312-3.8566,1.9943-10.25,9.179-10.25,11.5,0,1.8881,1.7252,3.6436,5.8125,5.9375,1.9248,1.0803,3.1977,1.0755,7.5-0.15625,2.85-0.81594,7.996-1.9816,11.438-2.5938,6.001-1.0673,6.3933-1.0348,9.5938,1.4062,1.8354,1.3999,4.0894,2.5625,5,2.5625,3.0048,0,4.3897,2.1625-1.4375,5.5625-3.1625,1.8452-13.688,6.8675-15.062,7.7812-10.312,6.8523-21.529,8.5846-23.281,5.75-0.86424-1.3984-4.1037-0.51709-3.7812,1.0312,0.15661,0.75194,1.8671,2.8538,3.7812,4.6562,2.8938,2.725,4.037,3.0396,5.6875,2.1562,2.7585-1.4075,5.355-2.6248,7.8929-3.7921,5.6247-2.5871,10.962-4.9288,17.138-8.5516,5.7084-3.1808,14.69-8.3124,20.188-11.75,5.9177-4.44,9.3782-6.0278,15.562-10.906,4.2364-4.0847,5.9345-4.3057,3.9688-6.9375-1.7156-2.297-1.897-1.5918-4.1562-0.625-2.3496,1.0055-2.3907,1.4522-4.4688-0.5-3.3143-3.1137-15.121-1.7522-21.281,1.4688l-5.4062,2.8438-2.4062-3.0938c-1.4906-1.8262-4.7606-3.3787-7-4.0625-1.0874-0.28578-4.0007-0.65677-7.0625-0.71875z"/>

   <path id="path7155-9" d="m521.59,264.08c3.4114,6.0958,9.44,7.1611,16.594,2.9688,3.7435-2.1938,3.9734-1.1241,7.7188,1.625,4.5048,2.5167,4.0803-5.902,9.3125-9.5312,1.616-1.0464,13.164-10.064,8.6875-14.375-1.9751-1.8345-6.4709,6.0667-11.156,8.9062-6.5348,4.4377-17.38,10.556-20.406,9-2.0874-1.0733-3.2906-1.8575-0.96875-6.3438,4.2597-8.3091,16.755-5.277,10.594-11.375-3.5942-1.9759-2.6959-2.6543-5.75,0.1875-4.0509,3.3918-13.812,14.526-13.812,15.75,0,0.48593-3.1016,0.82675-3.3032-0.13301-0.21627-1.0301-4.6901,2.949-5.2461,2.617-8.486,4.8392,6.9927-0.60527,7.7368,0.70351z"/>

   <path id="path5969-4" d="m614.16,252.77c0.80452-0.0166,3.3795,0.35646,2.6652,3.3572-0.3271,1.3741-6.9579,5.6499-10.844,6.9509-5.722,1.9158-8.5073,0.39318-4.7188-2.8616,3.7516-3.223,10.484-7.3965,12.897-7.4464zm1.1964-5.192c-6.9884-0.24434-16.349,4.9012-21.781,12.656-2.319,3.3108-2.1342,5.2292,0.78125,8.375,2.6853,2.8975,3.1258,2.8944,13.156-0.125,4.9591-1.4928,5.2125-1.4791,7.4375,0.59375,2.7222,2.5361,3.4942,0.005,9.9866-1.9643,3.1471-0.41948,6.937-2.7698,3.5446-3.192-4.8867,0.286-6.4515-0.73078-4.0938-2.6875,3.1849-2.6432,0.49655-9.9291-4.6562-12.594-1.2849-0.66445-2.7623-1.0061-4.375-1.0625z"/>

   <path id="path7137-7" d="m419.78,251.51c8.1722-0.18437,16.055,1.1265,21.25,5.7812,3.4632,3.4836,3.0755,5.5712-1.375,6.8438-11.772,3.4011-26.704,5.6696-39.656,7.4062-4.4959,0.8178-9.7164,2.8501-15.281,3-2.4746,0.11574-13.947,4.3376-10-4.1875,2.266-3.5953,4.6232-5.7751,6.2812-7.4375,4.9978-5.0111,9.5782-6.4248,10.969-7.1875,6.3158-1.2536,17.305-3.9817,27.812-4.2188zm13.562-51.406c-1.998-0.0998-5.4766,3.4602-15.438,14.031l-8.1562,8.6563-6.5,0.78125c-3.575,0.42422-10.212,0.67777-14.75,0.5625-8.4036-0.21347-9.6102,0.34953-6.5,3.0625,3.731,3.2544,6.2212,3.9934,9.5625,2.8125,1.7485-0.61796,4.9875-1.3758,7.1875-1.6562,2.2-0.28046,4.5625-0.68172,5.25-0.90625,2.7376-0.89406,0.73681,1.6167-11.125,14.062l-12.344,12.969-7.4062,1.3125c-4.062,0.72125-8.9181,2.0116-10.812,2.875l-3.4375,1.5938,2.9375,2.3438c1.6194,1.2957,3.695,2.372,4.625,2.375,2.6182,0.008,2.9588,1.5293,0.78125,3.5-2.6474,2.3958-2.4978,3.0382,1.0312,4.5,1.65,0.68345,3,1.5917,3,2.0312,0,1.0329-5.5167,2.3095-10,2.3125-6.6323,0.36722-14.219,0.51801-21.25-1.6562-7.6302-1.1718-2.4976,4.4637,5.75,6.3125,7.2348,1.3781,21.015-2.4269,30.5-2.375,3.2002-0.47389,14.189-1.9798,15.5-2.125,0.55-0.0609,2.575-0.43294,4.5-0.84375,12.77-2.7316,21.576-5.2584,34.969-6.0312,5.2054-0.56621,9.9314,0.38444,15.156-1.3438,10.256-5.5854-2.4678-14.836-11.406-19.5-6.781-3.0602-21.218-1.5428-33.812,0.65625-4.0691,0.71047-7.7954,0.93749-8.2812,0.5-0.48774-0.43921,0.22089-1.8458,1.5938-3.125,1.3675-1.2742,6.395-6.6606,11.188-11.969,9.0123-9.9821,8.7848-9.8444,19.094-11.438,2.2-0.33997,4.225-0.95513,4.5-1.375,0.275-0.41988,1.3296-0.4565,2.3438-0.0937,1.0142,0.36276,5.0642,0.0782,9-0.625,10.435-1.8644,20.235-3.2433,28.562-4.1563,4.1786-0.45814,2.2839-0.27085,5.3438-0.6875,1.1215-0.1527,10.313-1.2624,18.25-1.7812,2.75-0.17976,6.9227,0.10288,9.2812,0.625,5.0242,1.1122,5.8306,0.65841,4.0312-2.25-1.2444-2.0115-1.8799-2.1124-11.312-1.5938-17.285,0.95037-34.21,3.308-35.312,4.1562-0.59435,0.45738-0.26421,0.74073-1.1562,0.4375-1.0344-0.35162-1.9676-0.6093-5.1562,0.0937-5.3061,1.1699-27.67,3.8438-31.281,3.8438h-2.5625l3.2188-4.4062c1.7798-2.4213,4.1417-4.662,5.25-4.9688,1.1084-0.30675,3.5967-2.1613,5.5-4.125,2.8121-2.9013,3.255-3.8839,2.375-5.2812-0.77513-1.2309-1.3731-2.0484-2.2812-2.0938z"/>

   <path id="path5969-4-1" d="m366.65,234.58c0.80452-0.0166,3.3795,0.35646,2.6652,3.3572-0.3271,1.3741-6.9579,5.6499-10.844,6.9509-5.722,1.9158-8.5073,0.39318-4.7188-2.8616,3.7516-3.223,10.484-7.3965,12.897-7.4464zm1.1964-5.192c-6.9884-0.24434-16.349,4.9012-21.781,12.656-2.319,3.3108-2.1342,5.2292,0.78125,8.375,2.6853,2.8975,3.1258,2.8944,13.156-0.125,4.9591-1.4928,5.2125-1.4791,7.4375,0.59375,2.7222,2.5361,3.4942,0.005,9.9866-1.9643,3.1471-0.41948,6.937-2.7698,3.5446-3.192-4.8867,0.286-6.4515-0.73078-4.0938-2.6875,3.1849-2.6432,0.49655-9.9291-4.6562-12.594-1.2849-0.66445-2.7623-1.0061-4.375-1.0625z"/>

   <path id="path7135-1" d="m322.53,231.08c-0.86254-0.007-1.5319,0.17327-1.7188,0.59375-0.18333,0.4125-3.2688,3.1699-6.8438,6.125-8.0226,6.6315-8.8502,8.3505-5.2188,11.062,1.4873,1.1108,3.1688,2.4173,3.7188,2.9062,0.6028,0.53589,1.133,0.40312,1.3125-0.34375,0.37751-1.571,5.6857-7.2569,11.562-7.5938,2.5815-0.14798,6.9788-0.63525,6.6562,2.0938-0.24267,2.0531,3.4382,3.9688,4.0938,3.9688,0.6555,0,3.5421-3.0011,5.9688-5.4688,4.6714-4.7502,5.1892-7.3521,2.1562-10.75-2.1054-2.3587-3.3063-2.2161-5.7188,0.71875-1.297,1.5779-2.6688,4.3567-5.25,4.75-3.8129,0.58099-15.551,2.6354-6.5-4.3438,2.58-1.9895-1.6311-3.6991-4.2188-3.7188z"/>

   <path id="path7149-2" d="m260.11,229.73c1.9654,0.0458,3.573,0.99263,4.6562,2.3304,2.8413,3.5088,3.345,6.9378,0.0179,8.6339-4.001,2.0397-19.25,3.079-19.25,1.3125,0-2.2556,7.3523-10.323,11.594-11.594,1.3878-0.41578,1.8029-0.7105,2.9821-0.68304zm-2.6696-5.0982c-3.6625,0.0426-0.49635-3.3753-5.0938-0.10713-3.2804,2.1997-14.563,16.263-20.312,23.701-0.9074,1.3059-8.1609,8.9365-18.562,21.5-6.024,7.276-8.2726,9.3819-9.8125,8.7812-1.8448-0.7196-4.5607-1.8145-4.2812,0.625,0.25268,2.2056,1.4875,3.0911,4.6875,4.4062,7.2104,1.4396,4.8261,0.70898,10.219-5.5625,7.7868-8.0548,19.394-29.297,28.75-29.688,1.65-0.0782,7.8508-0.26481,13.781-0.4375,8.0905-0.23559,11.447-0.74719,13.406-2.0312,2.4058-1.5764,2.6582-1.5667,3.5-0.0625,3.4114,6.0958,9.44,7.1611,16.594,2.9688,3.7435-2.1938,3.9734-1.1241,7.7188,1.625,4.5048,2.5167,4.0803-5.902,9.3125-9.5312,1.616-1.0464,13.164-10.064,8.6875-14.375-1.9751-1.8345-6.4709,6.0667-11.156,8.9062-6.5348,4.4377-17.38,10.556-20.406,9-2.0874-1.0733-3.2906-1.8575-0.96875-6.3438,4.2597-8.3091,16.755-5.277,10.594-11.375-3.5942-1.9759-2.6959-2.6543-5.75,0.1875-4.0509,3.3918-13.812,14.526-13.812,15.75,0,0.48593-0.47228,0.59546-1.0312,0.25-0.55897-0.34546-0.75001-1.0256-0.4375-1.5312,0.99498-1.6099-3.5176-10.314-7.0938-13.688-1.8951-1.7793-4.8687-3.0113-8.5312-2.9688z"/>

   <path id="path7145-4" d="m109.59,231.87c-0.17601,0.0202-0.38152,0.0628-0.625,0.15625-0.87096,0.33422-1.5938,1.0568-1.5938,1.5938,0,1.3144,2.283,0.49483,2.7812-1,0.18268-0.54806-0.0345-0.81055-0.5625-0.75zm2.7812-0.4375c-0.55,0-1,0.48004-1,1.0625s0.45,0.77741,1,0.4375c0.55-0.33992,1-0.81996,1-1.0625s-0.45-0.4375-1-0.4375zm130.47-18.15c0.34713-0.0004,0.53125,0.0565,0.53125,0.15625,0,0.38452-3.7125,4.9626-8.25,10.156-4.5375,5.1937-10.007,11.539-12.156,14.125-2.149,2.5861-4.174,4.6512-4.5,4.5938-0.32595-0.0575-3.8181-1.3926-7.75-2.9688s-9.7819-3.305-13-3.875c-3.2181-0.57002-6.2938-1.1936-6.8438-1.375-0.55-0.18144-3.1375-0.69766-5.75-1.125s-4.75-1.0877-4.75-1.5c0-0.63726,8.1744-3.6313,12.219-4.4688,1.235-0.25573,2.0004-0.50964,6.2812-2.125,2.9396-1.0217,6.8291-1.6082,10-3.1875,2.2-0.60626,7.375-2.0601,11.5-3.25,9.7103-2.8011,20.039-5.1535,22.469-5.1562zm6.6562-6.6562c-0.93074,0.0179-2.1999,0.27147-4.1875,0.6875-6.2158,1.301-13.962,3.4704-21.938,6.125-3.025,1.0069-9.1,2.8274-13.5,4.0312s-8.5266,2.5838-9.1562,3.0938c-1.2705,0.71958-2.7905,0.73898-4.3438,1.125-0.825,0.31614-4.2,1.4804-7.5,2.5938-3.3,1.1133-8.025,2.778-10.5,3.6875-6.9444,2.5519-7.5041,2.5937-23.875,2.5-10.168-0.0582-15.733,0.46107-16.75,1.0625-1.037,0.61347-1.0278,0.33144-1.375,0.0312-1.2681-1.0964-11.107-1.3654-13.406,0.375-1.668,1.2627,0.0457,1.4232,14.5,1.5312,9.0154,0.0674,17.194,0.1383,18.156,0.125,0.9625-0.0133,1.75,0.61544,1.75,1.4062,0,0.79082-0.72506,1.4375-1.5938,1.4375-1.3634,0-10.654,3.2952-16.906,6-1.1,0.47584-3.125,1.1812-4.5,1.5625-1.375,0.38132-4.3,1.4846-6.5,2.4375-2.2,0.95294-6.025,2.525-8.5,3.5-2.475,0.97501-5.9231,2.3747-7.6562,3.125-10.064,4.15-19.409,6.8429-30.344,11.531-4.675,1.6244-12.325,4.4475-17,6.2812-11.796,4.6268-24.156,8.2877-32.844,9.75-9.722,1.6255-17.28-16.896-12.437,2.2188,5.2348,6.4154,30.205-1.8796,41.625-6.2812,17.618-6.8114,37.386-15.458,56.875-21.781,10.45-4.3821,23.193-8.4069,34.688-13.094,1.3255-0.0901,2.6755-0.56605,3-1.0625,0.32449-0.49645,3.0688-1.7255,6.0938-2.75,6.4715-2.1917,21.254-2.5922,24.719-0.65625,6.7198,1.8993,14.207,2.2328,20.312,5.0938,4.4941,1.8378,9.3822,4.0262,12.469,7.125,1.5808,1.65,3.3254,1.615,4.185,1.611,3.9816-8.3439,8.445-11.192,13.815-17.392,3.622-4.559,11.961-13.686,13.75-15.031,0.96564-0.72634,2.4292-2.6003,3.25-4.1875,1.3939-2.6955,1.3391-3.0611-0.8125-5.5625-1.4016-1.6294-2.0113-2.2798-3.5625-2.25z"/>

  </g>

 </g>

</svg>

